<?xml version="1.0" encoding="utf-8"?>
<!-- Generator: Adobe Illustrator 21.1.0, SVG Export Plug-In . SVG Version: 6.00 Build 0)  -->
<svg version="1.1" id="Layer_1" xmlns="http://www.w3.org/2000/svg" xmlns:xlink="http://www.w3.org/1999/xlink" x="0px" y="0px"
	 viewBox="0 0 65 90" style="enable-background:new 0 0 65 90;" xml:space="preserve">
<style type="text/css">
	.st0{fill:#0D3C82;}
	.st1{font-family:'HelveticaNeue-Bold';}
	.st2{font-size:5px;}
</style>
<path class="st0" d="M32.5,8.8C14.6,8.8,0,23.4,0,41.3s14.6,32.5,32.5,32.5S65,59.2,65,41.3S50.4,8.8,32.5,8.8z M51.1,49.8
	c-0.6,0.1-1.1-0.1-1.5-0.6c-0.1,0.1-0.1,0.1-0.2,0.2c-0.2,0.2-0.4,0.5-0.6,0.7c0.2,0.2,0.6,0.3,0.8,0.3c0.7,0.1,1,0.6,1.1,1.1
	c0.1,1.4-2.3,2.1-2.5,2.1c-1.8,0.5-2.8-1.5-3.6-3l0,0c-0.1,0.4-0.1,0.7-0.2,1c-0.3,1-1,1.1-1.3,1.2c-0.9,0.1-1.6-0.6-2-1.2
	c-0.1,0.1-0.2,0.1-0.2,0.2c-0.1,0.1-0.2,0.2-0.3,0.3c0,0,0.1,0,0.1,0.1c0.6,0.2,1.1,0.5,1.5,0.9s0.5,0.9,0.3,1.5
	c-0.3,1-1.6,1.6-2.6,1.8c-1,0.1-1.9-0.3-2.4-1.1l-0.1-0.1l0,0c-0.1,0-0.4,0.3-0.6,0.5c-0.4,0.4-0.9,0.8-1.5,1.1c-0.2,0-0.4,0-0.6,0
	c-0.5,0-1-0.2-1.3-0.6c-0.6-0.7-0.9-2-0.3-2.9c0.2-0.3,0.3-1.3,0.1-2.2c-0.2,0.2-0.5,0.2-0.8,0.2c-0.9-0.1-1.4-1-1.9-2.1
	c0-0.1-0.1-0.2-0.1-0.2c-0.3,0.2-0.7,0.4-0.9,0.6c-0.2,0.2-0.5,0.4-0.7,0.5c0.5,0.4,1.5,1,2.2,1.2c0.9,0.3,1.2,1,1.1,1.5
	c-0.1,1.3-2.3,2.4-4.1,2.6c-1,0.1-1.8,0-2.3-0.5c-0.3-0.3-0.3-0.7-0.3-1c-0.7-0.1-2-0.2-2.5-0.3c-0.3,0-0.5,0-0.7-0.1
	c-0.3,0-1.1-0.1-1.5-0.8c-0.4-0.8,0-1.7,0.6-2.7c0-0.1,0-0.1,0-0.2c-0.3-0.6-1.5-1.2-2.4-1.4c0,0.2-0.1,0.5-0.1,0.8
	c0,0.4-0.1,0.9-0.1,1.4c0,0.1,0,0.2,0,0.3c0.1,0,0.1,0,0.2,0c0.4,0,1,0.1,1.4,0.7c0.2,0.3,0.3,0.7,0.1,1.1c-0.3,0.7-1.1,0.8-2.4,1.1
	c-0.6,0.1-1.4,0.2-2.1,0.4c-2.4,0.6-3.1-0.6-3.5-1.3c-0.1-0.1-0.1-0.3-0.2-0.3c-0.3-0.3-0.4-0.7-0.3-1.1c0.1-0.7,0.8-1.4,2.1-2.2
	c-0.3-0.8-0.2-1.5-0.2-2.2c0-0.5,0-1-0.1-1.7c0-0.3-0.1-0.6-0.1-0.9c-0.1-0.6-0.1-1.3-0.2-1.6c-0.2-0.1-0.3-0.3-0.4-0.4
	c-0.3-0.6-0.2-1.5,0.3-2.3c0.4-0.5,0.9-0.8,1.2-0.9c-0.3-0.1-0.6-0.4-0.9-1c-0.2-0.3-0.5-1-0.8-11.3l0,0l0,0v-0.1v-0.1v-0.1v-0.1
	v-0.1v-0.1c0,0,0-0.1,0.1-0.1c0,0,0,0,0.1-0.1c0,0,0,0,0.1-0.1c0,0,0,0,0.1-0.1h0.1h0.1h0.1h0.1h0.1h0.1l0,0l0,0h14.6
	c0.4,0,0.7,0.2,0.9,0.5c0.2,0.3,0.2,0.7,0,1S29,28.3,29,28.4c0.2,0.1,0.4,0.1,0.7,0.2c0.4,0,1.7,0.2,1.5,1.8c0,0.5-0.2,1-0.4,1.3
	c0.1,0,0.2,0,0.3,0c1.2,0,2.2,0,2.7,0.6c0.2,0.3,0.3,0.7,0.2,1.1c-0.2,0.7-0.7,1.2-1.2,1.7c-0.4,0.4-0.8,0.9-1,1.3l-0.1,0.4
	c-0.3,1-0.6,2-1.8,2.4c-1.7,0.6-2.2,1-2.3,1.1c0,0.2-0.1,0.4-0.2,0.6h11.2c0.4,0,0.8,0.3,0.9,0.7c0.1,0.4,0,0.9-0.4,1.1
	c-1.3,0.9-2.7,2.1-2.7,2.6c0,0.1,0.2,0.2,0.3,0.2c0.2,0.1,0.4,0.1,0.4,0c0.2-0.8,0.7-1.2,1.4-1.4c1-0.2,2,0.6,2.5,1.2
	c0.3,0.1,1,0,2-0.3c0.5-0.1,0.5-0.2,0.7-0.6c0.1-0.2,0.2-0.4,0.4-0.7c0.2-0.2,0.6-0.8,1.4-0.8c0.8,0.1,1.3,0.8,2,2.2l0,0
	c0.3-0.4,0.7-0.9,1.2-1.2c1.4-0.8,2.3,0.1,2.8,0.7c0.3,0.3,0.6,0.6,0.9,0.7c0.7,0.2,1.2,0.8,1.2,1.6C53.3,48,52.2,49.6,51.1,49.8z"
	/>
<text transform="matrix(1 0 0 1 21.0225 83.7131)" class="st0 st1 st2">Louisiana</text>
</svg>
