<?xml version="1.0" encoding="utf-8"?>
<!-- Generator: Adobe Illustrator 21.1.0, SVG Export Plug-In . SVG Version: 6.00 Build 0)  -->
<svg version="1.1" id="Layer_1" xmlns="http://www.w3.org/2000/svg" xmlns:xlink="http://www.w3.org/1999/xlink" x="0px" y="0px"
	 viewBox="0 0 65 90" style="enable-background:new 0 0 65 90;" xml:space="preserve">
<style type="text/css">
	.st0{fill:#0D3C82;}
	.st1{font-family:'HelveticaNeue-Bold';}
	.st2{font-size:5px;}
</style>
<path class="st0" d="M32.5,8.8C14.6,8.8,0,23.3,0,41.2s14.6,32.5,32.5,32.5S65,59.2,65,41.2S50.4,8.8,32.5,8.8z M53.3,39.9
	c0,0.4-0.2,0.7-0.6,0.8L52,41l-0.6,0.5l-0.2,0.3c-0.1,0.2-0.3,0.3-0.5,0.3c0,0,0,0.1-0.1,0.1l-0.5,0.9c0,0,0,0,0,0.1l-0.8,1.2
	c-0.2,0.3-0.5,0.4-0.8,0.4h-0.3c-0.1,0-0.3,0-0.4-0.1l-0.3,0.1l-1.1,0.5l-1.5,1.2l-0.7,1L43.7,49l-0.1,0.6c-0.1,0.4-0.4,0.7-0.9,0.8
	l-1.1,0.1l-1.2,0.4c-0.1,0-0.2,0-0.3,0c-0.2,0-0.4-0.1-0.6-0.2l-2.6-2.1l-3.1-1.9l-0.5-0.1l-4.1,0.5c-0.4,0-0.8-0.2-1-0.5L28,46
	l-0.3-0.2l-3.9,0.1l-1.7,0.2l-2.2,1.1c0,0,0,0-0.1,0l-1.8,0.7C18,48,18,48,17.9,48l-1.7,0.3c0,0,0,0-0.1,0l-3.4,0.4
	c-0.3,0-0.6-0.1-0.8-0.3c-0.2-0.2-0.3-0.5-0.3-0.7l0-1.1c0-0.3,0.1-0.6,0.4-0.8l0.4-0.3c0.1-0.1,0.2-0.1,0.3-0.2l0.1,0L13,45
	c0-0.3,0.2-0.5,0.4-0.6l1-0.6c0.1,0,0.1-0.1,0.2-0.1l0.9-0.3l1-0.9c0.1,0,0.1-0.1,0.2-0.1l0.7-0.4l0.1-0.4c0-0.2,0.1-0.4,0.3-0.5
	l1.1-1c0.2-0.2,0.5-0.3,0.8-0.3c0.1,0,0.2,0,0.3,0.1l0.2-0.3c0.1-0.2,0.3-0.4,0.6-0.4l0.4-0.1c0.1,0,0.2,0,0.3,0l0.2-0.4
	c0.1-0.1,0.1-0.2,0.2-0.3l0.5-0.4l0-0.1l0-0.8c0-0.5,0.4-1,1-0.9l1,0l9.8-1.4l14.7-3.2c0.5-0.1,0.9,0.1,1.1,0.6l0.5,1.2l0.8,1.5
	l0.5,0.5c0,0,0,0.1,0.1,0.1c0.2,0.1,0.4,0.3,0.6,0.5l0.7,1.4c0.1,0.1,0.1,0.2,0.1,0.3l0.1,1.1c0,0,0,0.1,0,0.1L53.3,39.9z"/>
<text transform="matrix(1 0 0 1 15.0948 83.6631)" class="st0 st1 st2">North Carolina</text>
</svg>
