<?xml version="1.0" encoding="utf-8"?>
<!-- Generator: Adobe Illustrator 21.1.0, SVG Export Plug-In . SVG Version: 6.00 Build 0)  -->
<svg version="1.1" id="Layer_1" xmlns="http://www.w3.org/2000/svg" xmlns:xlink="http://www.w3.org/1999/xlink" x="0px" y="0px"
	 viewBox="0 0 65 90" style="enable-background:new 0 0 65 90;" xml:space="preserve">
<style type="text/css">
	.st0{fill:#0D3C82;}
	.st1{font-family:'HelveticaNeue-Bold';}
	.st2{font-size:5px;}
</style>
<path class="st0" d="M32.5,8.8C14.6,8.8,0,23.3,0,41.2s14.6,32.5,32.5,32.5S65,59.2,65,41.2S50.4,8.8,32.5,8.8z M53,37.1
	c0,0.2-0.1,0.4-0.2,0.5l-0.7,0.9l-0.1,1l0.1,0.9c0,0.2,0,0.3,0,0.5l-0.5,1.5c-0.1,0.2-0.2,0.3-0.3,0.4l-0.6,0.5c0,0,0.1,0.1,0.1,0.2
	l1.1,1.8c0.2,0.3,0.2,0.6,0.1,0.9c-0.1,0.3-0.4,0.5-0.7,0.6l-16.8,3.6c0,0,0,0-0.1,0L23,52c-0.1,0-0.1,0-0.2,0l-1.4,0
	c0,0-0.1,0-0.1,0l-0.2,0l-0.4,0.3c-0.2,0.1-0.4,0.2-0.6,0.2l-2.1,0l-3,0.5l-2,0.2c0,0-0.1,0-0.1,0c-0.4,0-0.8-0.3-0.9-0.7
	c-0.1-0.4,0-0.9,0.4-1.1l1.2-0.8l0.8-0.4v0c0-0.2,0.1-0.4,0.2-0.6l1.7-2.2c0,0,0.1-0.1,0.1-0.1l1.2-1.1l0.6-0.7
	c0.2-0.2,0.4-0.3,0.7-0.3c0.3,0,0.6,0.1,0.7,0.3l0.9,1l0.5,0.1l0.4-0.1l0.5-0.4c0.3-0.2,0.7-0.3,1-0.1l0.4,0.2l0.5-0.1l0.3-0.8
	c0.2-0.5,0.7-0.7,1.2-0.6l0.3,0.1l0.6-0.4c0.2-0.1,0.5-0.2,0.7-0.2l0.2-0.3l0-0.1l0-0.1c-0.2-0.3-0.2-0.6-0.1-0.9l1.4-3.1l0.5-1.4
	l0.1-1.3c0-0.4,0.3-0.7,0.7-0.8l0.2-0.1c0.4-0.1,0.9,0,1.1,0.4l0.3,0.4l0,0l0.3-1.7c0.1-0.4,0.4-0.7,0.8-0.8l0.3-0.1l0.1-0.2
	c0.1-0.2,0.2-0.4,0.3-0.5l0.7-0.5l0.2-0.4l0.4-1.1l0-1.2c0-0.3,0.2-0.6,0.4-0.8s0.6-0.2,0.9-0.1l1.1,0.4c0,0,0,0,0.1,0l0.6,0.3
	l0-0.1c0-0.3,0.2-0.6,0.4-0.8c0.3-0.2,0.6-0.2,0.9-0.1l1,0.4c0.5,0.2,0.7,0.6,0.6,1.1l0,0l1.7,0.6c0.2,0.1,0.3,0.2,0.4,0.3l0.4,0.5
	c0.2,0.2,0.2,0.5,0.2,0.8l-0.2,1c0,0.2-0.1,0.3-0.3,0.5l-0.2,0.2l0,0.1l0.2,0.1l1.8,0.6l1.4,0.3c0.2,0,0.4,0.1,0.5,0.3l0.4,0.4
	l0.6,0.1c0.3,0,0.5,0.2,0.7,0.4l0.3,0.4c0.1,0.2,0.2,0.4,0.2,0.7L48.4,39c0.2,0.1,0.3,0.3,0.3,0.5c0-0.1,0-0.1,0.1-0.2l0.4-1.2
	l0.2-0.8l0-0.4c0-0.4,0.2-0.8,0.6-1l1.7-0.7c0.3-0.1,0.7-0.1,0.9,0.1c0.3,0.2,0.4,0.5,0.4,0.9L53,37.1z"/>
<text transform="matrix(1 0 0 1 23.5723 83.6631)" class="st0 st1 st2">Virginia</text>
</svg>
